<?xml version="1.0" standalone="no"?>
<!DOCTYPE svg PUBLIC "-//W3C//DTD SVG 20010904//EN"
 "http://www.w3.org/TR/2001/REC-SVG-20010904/DTD/svg10.dtd">
<svg version="1.0" xmlns="http://www.w3.org/2000/svg"
 width="81.000000pt" height="81.000000pt" viewBox="0 0 81.000000 81.000000"
 preserveAspectRatio="xMidYMid meet">
<metadata>

</metadata>
<g transform="translate(0.000000,81.000000) scale(0.100000,-0.100000)"
fill="#000000" stroke="none">
<path d="M392 779 c-5 -13 -26 -76 -48 -139 -21 -63 -40 -117 -41 -119 -1 -2
-68 -4 -148 -4 -80 0 -145 -3 -145 -6 1 -3 52 -46 115 -95 63 -49 115 -92 115
-97 0 -4 -21 -71 -46 -149 -25 -78 -43 -144 -41 -146 3 -3 59 36 126 86 77 58
125 89 133 84 7 -4 64 -46 126 -92 62 -47 114 -83 116 -81 2 2 -2 22 -9 44 -7
22 -29 88 -48 147 l-34 107 26 24 c14 13 69 57 121 98 l94 74 -151 3 -151 3
-43 132 c-23 72 -46 136 -50 141 -5 5 -12 -2 -17 -15z"/>
</g>
</svg>
